# xmcd
# 
# Track frame offsets:
#     182
#     13925
#     26470
#     41390
#     54687
#     69747
#     83905
#     100415
#     116162
#     132915
#     148547
# 
# Disc length: 2207
# 
# Revision: 5
# Processed by: cddbd v1.5.2PL0 Copyright (c) Steve Scherf et al.
# Submitted via: BonkEnc v1.0.6
# 
DISCID=9a089d0b
DTITLE=Tracy Lawrence - Lessons Learned
DYEAR=2000
DGENRE=Country
TTITLE0=The Holes That He Dug
TTITLE1=Long Wet Kiss
TTITLE2=From the Inside Out
TTITLE3=Lessons Learned
TTITLE4=The Man I Was
TTITLE5=Lonely
TTITLE6=Just You and Me
TTITLE7=Steps
TTITLE8=From Here to Kingdom Come
TTITLE9=Up All Night
TTITLE10=Unforgiven
EXTD=YEAR: 2000 ID3G:   2
EXTT0=
EXTT1=
EXTT2=
EXTT3=
EXTT4=
EXTT5=
EXTT6=
EXTT7=
EXTT8=
EXTT9=
EXTT10=
PLAYORDER=
